<?xml version="1.0" encoding="UTF-8"?>
<svg xmlns="http://www.w3.org/2000/svg" xmlns:xlink="http://www.w3.org/1999/xlink" viewBox="0 0 250 250" width="250px" height="250px">
<g id="surface40157018">
<path style=" stroke:none;fill-rule:nonzero;fill:rgb(90.588236%,90.588236%,90.588236%);fill-opacity:1;" d="M 151.992188 10 L 35 10 L 35 240 L 215 240 L 215 73.007812 Z M 150 75 L 150 21.992188 L 203.007812 75 Z M 150 75 "/>
<path style=" stroke:none;fill-rule:nonzero;fill:rgb(80.000001%,80.000001%,80.000001%);fill-opacity:1;" d="M 127.210938 149.238281 L 118.488281 149.238281 C 118.488281 146.058594 118.875 143.53125 119.652344 141.648438 C 120.425781 139.761719 121.839844 137.898438 123.894531 136.066406 C 125.949219 134.246094 127.316406 132.757812 127.996094 131.605469 C 128.683594 130.460938 129.027344 129.257812 129.027344 127.988281 C 129.027344 124.148438 127.253906 122.230469 123.707031 122.230469 C 122.019531 122.230469 120.671875 122.746094 119.664062 123.773438 C 118.65625 124.808594 118.128906 126.238281 118.082031 128.058594 L 108.199219 128.058594 C 108.246094 123.71875 109.652344 120.320312 112.414062 117.871094 C 115.175781 115.417969 118.9375 114.191406 123.707031 114.191406 C 128.523438 114.191406 132.257812 115.355469 134.914062 117.683594 C 137.566406 120.007812 138.894531 123.292969 138.894531 127.535156 C 138.894531 129.472656 138.464844 131.300781 137.601562 133.015625 C 136.738281 134.730469 135.226562 136.628906 133.066406 138.714844 L 130.320312 141.34375 C 128.585938 143 127.597656 144.9375 127.355469 147.160156 Z M 117.5 159.703125 C 117.5 158.179688 118.019531 156.925781 119.054688 155.9375 C 120.09375 154.949219 121.414062 154.453125 123.023438 154.453125 C 124.632812 154.453125 125.953125 154.949219 126.992188 155.9375 C 128.027344 156.925781 128.546875 158.179688 128.546875 159.703125 C 128.546875 161.203125 128.039062 162.4375 127.019531 163.410156 C 126.011719 164.386719 124.679688 164.875 123.023438 164.875 C 121.367188 164.875 120.035156 164.386719 119.027344 163.410156 C 118.007812 162.4375 117.5 161.203125 117.5 159.703125 Z M 117.5 159.703125 "/>
</g>
</svg>
