<?xml version="1.0" encoding="utf-8"?>
<!-- Generator: Adobe Illustrator 25.3.1, SVG Export Plug-In . SVG Version: 6.00 Build 0)  -->
<svg version="1.1" id="Layer_1" xmlns="http://www.w3.org/2000/svg" xmlns:xlink="http://www.w3.org/1999/xlink" x="0px" y="0px"
	 viewBox="0 0 144 144" style="enable-background:new 0 0 144 144;" xml:space="preserve">
<style type="text/css">
	.st0{fill:#4FC3F7;}
	.st1{fill:#FBE9E7;}
	.st2{fill:#546E7A;}
	.st3{fill:#78909C;}
</style>
<path class="st0" d="M120,135H24V9h66l30,30V135z"/>
<path class="st1" d="M115.5,42H87V13.5L115.5,42z"/>
<path class="st2" d="M54.8,98.4H42.5c-1.9,0-3.5-1.6-3.5-3.5v-21c0-1.9,1.6-3.5,3.5-3.5h12.2V98.4z"/>
<path class="st3" d="M75.8,115.9l-21-17.5v-28l21-17.5V115.9z"/>
<path class="st1" d="M88,84.4c0,4.3-2.2,8-5.5,10.2l-2.5-2.5c2.8-1.5,4.6-4.3,4.6-7.7s-1.8-6.2-4.6-7.7l2.5-2.5
	C85.8,76.4,88,80,88,84.4z"/>
<path class="st1" d="M96.8,84.4c0,6.7-3.2,12.6-8.1,16.4l-2.4-2.4c4.3-3.2,7-8.3,7-14s-2.7-10.8-7-14l2.5-2.5
	C93.6,71.7,96.8,77.7,96.8,84.4z"/>
<path class="st1" d="M105.5,84.4c0,9.1-4.1,17.2-10.6,22.7l-2.5-2.5c5.8-4.8,9.5-12.1,9.5-20.2S98.3,69,92.5,64.2l2.5-2.5
	C101.4,67.2,105.5,75.3,105.5,84.4z"/>
</svg>
