<?xml version="1.0" encoding="utf-8"?>
<!-- Generator: Adobe Illustrator 25.4.1, SVG Export Plug-In . SVG Version: 6.00 Build 0)  -->
<svg version="1.1" id="Layer_1" xmlns="http://www.w3.org/2000/svg" xmlns:xlink="http://www.w3.org/1999/xlink" x="0px" y="0px"
	 viewBox="0 0 150 40" style="enable-background:new 0 0 150 40;" xml:space="preserve">
<style type="text/css">
	.st0{fill-rule:evenodd;clip-rule:evenodd;fill:#1E1D1D;}
	.st1{fill-rule:evenodd;clip-rule:evenodd;fill:#3A3A3A;}
	.st2{fill:#3A3A3A;}
</style>
<g id="Слой_2">
	<g id="Слой_1-2">
		<path class="st0" d="M28,20.4l-2.4,2.3c-2.6,2.5-6.7,2.5-9.4,0l-2.5-2.3l2.5-2.4c2.6-2.5,6.7-2.5,9.4,0L28,20.4z"/>
		<path class="st1" d="M25.6,22.7l2.4-2.4l9.9,9.5c1.6,1.5,1.6,4,0.1,5.6s-4,1.6-5.6,0.1l0,0l-11.6-11l-11.6,11
			C7.6,37,5.1,37,3.6,35.4s-1.5-4.1,0.1-5.6l9.9-9.5l2.5,2.3C18.8,25.3,23,25.3,25.6,22.7z"/>
		<path class="st1" d="M7.3,12.7c0-2.2,1.8-4,4-4c1,0,2,0.4,2.8,1.1l6.9,6.4l11.6-11c1.6-1.5,4.1-1.5,5.6,0.1s1.5,4.1-0.1,5.6l0,0
			l-10,9.5L25.6,18l0,0c-2.6-2.5-6.7-2.5-9.4,0l-2.5,2.4l-5.2-4.9C7.7,14.8,7.3,13.7,7.3,12.7z"/>
	</g>
</g>
<g>
	<path class="st2" d="M62.5,25.9c-1.3,1.4-3,2-4.8,2c-4.7,0-6.7-3.5-6.7-7c0-3.6,2.1-7.2,6.7-7.2c1.7,0,3.3,0.7,4.7,2.1l-1.6,1.7
		c-0.8-0.9-2-1.3-3.1-1.3c-3.1,0-4.4,2.4-4.4,4.7s1.2,4.6,4.4,4.6c1.1,0,2.4-0.5,3.2-1.4L62.5,25.9z"/>
	<path class="st2" d="M72.5,27.6v-5.5h-6.2v5.5h-2.4V14h2.4v5.7h6.2V14h2.4v13.6H72.5z"/>
	<path class="st2" d="M86.6,27.6h-9.5c0-4.5,0-9.1,0-13.6h9.5v2.5h-7.1v3.1h6.9V22h-6.9v3h7.1V27.6z"/>
	<path class="st2" d="M99.6,25.9c-1.3,1.4-3,2-4.8,2c-4.7,0-6.7-3.5-6.7-7c0-3.6,2.1-7.2,6.7-7.2c1.7,0,3.3,0.7,4.7,2.1l-1.6,1.7
		c-0.8-0.9-2-1.3-3.1-1.3c-3.1,0-4.4,2.4-4.4,4.7s1.2,4.6,4.4,4.6c1.1,0,2.4-0.5,3.2-1.4L99.6,25.9z"/>
	<path class="st2" d="M111.1,14l-5.6,6.5l6.1,6.9v0.2h-3l-5.3-6v6h-2.4V14h2.4v5.8l4.8-5.8L111.1,14L111.1,14z"/>
	<path class="st2" d="M124.1,20.9c0,3.5-2,7-6.5,7s-6.5-3.4-6.5-7s2.1-7.2,6.5-7.2S124.2,17.3,124.1,20.9z M113.5,20.9
		c0.1,2.2,1.2,4.6,4.2,4.6s4.1-2.4,4.1-4.6c0-2.3-1.2-4.9-4.1-4.9S113.4,18.6,113.5,20.9z"/>
	<path class="st2" d="M137,14v7.8c0,4-2.3,6.1-5.5,6.1c-3,0-5.6-2-5.6-6.1V14h2.4v7.8c0,2.4,1.3,3.8,3.3,3.8s3.1-1.4,3.1-3.8V14H137
		z"/>
	<path class="st2" d="M142.6,16.3h-4V14c3.7,0,6.8,0,10.4,0v2.3h-4v11.3h-2.4V16.3z"/>
</g>
</svg>
